<?xml version="1.0" encoding="UTF-8" standalone="no"?>
<!-- Created with Inkscape (http://www.inkscape.org/) -->

<svg
   xmlns:dc="http://purl.org/dc/elements/1.1/"
   xmlns:cc="http://creativecommons.org/ns#"
   xmlns:rdf="http://www.w3.org/1999/02/22-rdf-syntax-ns#"
   xmlns:svg="http://www.w3.org/2000/svg"
   xmlns="http://www.w3.org/2000/svg"
   xmlns:sodipodi="http://sodipodi.sourceforge.net/DTD/sodipodi-0.dtd"
   xmlns:inkscape="http://www.inkscape.org/namespaces/inkscape"
   width="79.875"
   height="79.03125"
   id="svg2"
   version="1.1"
   inkscape:version="0.48.4 r9939"
   sodipodi:docname="logo5.svg">
  <defs
     id="defs4" />
  <sodipodi:namedview
     id="base"
     pagecolor="#ffffff"
     bordercolor="#666666"
     borderopacity="1.0"
     inkscape:pageopacity="0.0"
     inkscape:pageshadow="2"
     inkscape:zoom="3.959798"
     inkscape:cx="54.723002"
     inkscape:cy="27.647749"
     inkscape:document-units="px"
     inkscape:current-layer="layer1"
     showgrid="false"
     showguides="true"
     inkscape:guide-bbox="true"
     fit-margin-top="0"
     fit-margin-left="0"
     fit-margin-right="0"
     fit-margin-bottom="0"
     inkscape:window-width="1231"
     inkscape:window-height="1000"
     inkscape:window-x="49"
     inkscape:window-y="24"
     inkscape:window-maximized="1" />
  <metadata
     id="metadata7">
    <rdf:RDF>
      <cc:Work
         rdf:about="">
        <dc:format>image/svg+xml</dc:format>
        <dc:type
           rdf:resource="http://purl.org/dc/dcmitype/StillImage" />
        <dc:title></dc:title>
      </cc:Work>
    </rdf:RDF>
  </metadata>
  <g
     inkscape:label="Layer 1"
     inkscape:groupmode="layer"
     id="layer1"
     style="display:inline"
     transform="translate(-192.69239,-360.81015)">
    <path
       style="fill:#0000ff;fill-opacity:1;stroke:none"
       d="m 59.40625,39.1875 c -0.417783,0 -0.835306,0.01857 -1.25,0.03125 -0.0011,0.03234 10e-4,0.06135 0,0.09375 -0.07195,2.158094 -0.125018,4.117416 -0.125,5.84375 l 0,64.28125 c -1.8e-5,3.02123 0.524158,5.2052 1.53125,6.5 1.007053,1.22288 3.084889,1.8125 6.25,1.8125 l 0,0.46875 c 7.864091,-1.26084 14.947049,-4.81536 20.5625,-9.9375 -1.476888,0.31359 -2.993676,0.46875 -4.53125,0.46875 -2.877376,0 -5.650969,-0.66451 -8.3125,-2.03125 -2.589633,-1.36674 -4.892116,-3.22936 -6.90625,-5.53125 -2.014156,-2.22994 -3.620883,-4.800702 -4.84375,-7.75 -1.150946,-2.949269 -1.750005,-5.969325 -1.75,-9.0625 -5e-6,-4.172134 0.695752,-8.112594 2.0625,-11.78125 1.366735,-3.668586 3.294806,-6.860223 5.8125,-9.59375 2.445735,-2.661504 5.347277,-4.792406 8.65625,-6.375 3.380865,-1.582491 7.043612,-2.374946 11,-2.375 1.025032,4e-5 2.156829,0.119419 3.34375,0.28125 C 83.598945,45.192849 72.217402,39.1875 59.40625,39.1875 z M 47.4375,41 c -8.575834,2.679597 -15.90457,8.16643 -20.90625,15.375 0.573224,-0.296452 1.151825,-0.565211 1.78125,-0.8125 2.086063,-0.863153 4.441612,-1.312446 7.03125,-1.3125 1.726387,5.4e-5 3.632643,0.277767 5.71875,0.78125 2.157984,0.431655 4.182754,1.171044 6.125,2.25 l 0.875,11.875 -2.25,0 C 45.308931,65.487667 44.142064,62.692258 42.34375,60.75 c -1.798373,-2.014098 -4.5189,-3.0312 -8.1875,-3.03125 -2.805438,5e-5 -5.257685,0.717623 -7.34375,2.15625 -2.086093,1.366789 -3.125011,3.251229 -3.125,5.625 -1.1e-5,1.726452 0.396217,3.23648 1.1875,4.53125 0.791259,1.222911 1.830177,2.336712 3.125,3.34375 1.294792,0.935173 2.751754,1.771261 4.40625,2.5625 1.654457,0.791303 3.367315,1.561942 5.09375,2.28125 1.654452,0.791301 3.261178,1.605572 4.84375,2.46875 1.582513,0.863232 2.995842,1.9334 4.21875,3.15625 1.150906,1.150964 2.093126,2.511227 2.8125,4.09375 0.791235,1.510629 1.187462,3.26712 1.1875,5.28125 -3.8e-5,1.942226 -0.374449,3.848481 -1.09375,5.71875 -0.719374,1.87029 -1.833175,3.53008 -3.34375,4.96875 -1.510642,1.51061 -3.416898,2.6993 -5.71875,3.5625 -2.141954,0.80322 -4.641712,1.19419 -7.46875,1.25 4.360071,3.84485 9.568418,6.7747 15.3125,8.4375 0.746205,-0.25926 1.312146,-0.5669 1.6875,-1 1.007062,-1.15093 1.531238,-3.40979 1.53125,-6.71875 l 0,-60.1875 C 51.468738,47.379795 51.34079,45.891583 51.125,44.8125 50.981121,43.661637 50.63796,42.772483 50.0625,42.125 49.558954,41.549609 48.788315,41.175198 47.78125,41.03125 47.680471,41.015754 47.544963,41.013827 47.4375,41 z M 83.25,57.71875 c -2.805444,5e-5 -5.310758,0.717623 -7.46875,2.15625 -2.086099,1.366789 -3.789524,3.12328 -5.15625,5.28125 -1.366756,2.086121 -2.405674,4.388605 -3.125,6.90625 -0.647416,2.517717 -0.968761,4.873266 -0.96875,7.03125 -1.1e-5,3.021246 0.34315,5.913354 1.0625,8.71875 0.791259,2.805436 2.001758,5.257684 3.65625,7.34375 1.65446,2.158025 3.763547,3.8927 6.28125,5.1875 2.517659,1.22288 5.484649,1.84376 8.9375,1.84375 2.115689,0 4.117704,-0.285 5.96875,-0.84375 4.364665,-6.373004 6.90625,-14.073492 6.90625,-22.375 0,-4.524683 -0.759314,-8.884724 -2.15625,-12.9375 -0.07895,-0.04599 -0.169564,-0.07381 -0.25,-0.125 -0.719379,-0.575428 -1.586716,-1.711045 -2.59375,-3.4375 C 93.624374,61.173988 92.413875,60.060187 90.6875,59.125 88.961055,58.18991 86.486991,57.7188 83.25,57.71875 z m -63.46875,16.4375 c -0.19076,1.576766 -0.3125,3.18464 -0.3125,4.8125 0,9.906023 3.638383,18.946838 9.65625,25.90625 1.192373,0.33796 2.532156,0.53125 4.0625,0.53125 4.100203,0 6.895612,-0.86734 8.40625,-2.59375 1.582514,-1.79834 2.374969,-3.779477 2.375,-5.9375 -3.1e-5,-1.654465 -0.374443,-3.036545 -1.09375,-4.1875 -0.647434,-1.222859 -1.514771,-2.314843 -2.59375,-3.25 -1.079034,-0.93512 -2.311349,-1.749392 -3.75,-2.46875 -1.438699,-0.79125 -2.926911,-1.583706 -4.4375,-2.375 -3.668641,-1.942188 -6.838461,-4.147973 -9.5,-6.59375 -1.222305,-1.156216 -2.151533,-2.444781 -2.8125,-3.84375 z"
       transform="translate(173.22364,321.62265)"
       id="path3799"
       inkscape:connector-curvature="0" />
  </g>
  <g
     inkscape:groupmode="layer"
     id="layer2"
     inkscape:label="Layer2"
     style="display:none"
     transform="translate(-192.69239,-360.81015)">
    <text
       xml:space="preserve"
       style="font-size:110.49034882px;font-style:normal;font-variant:normal;font-weight:normal;font-stretch:normal;line-height:125%;letter-spacing:0px;word-spacing:0px;fill:#000000;fill-opacity:1;stroke:none;display:inline;font-family:NanumMyeongjo;-inkscape-font-specification:NanumMyeongjo"
       x="186.0056"
       y="429.40594"
       id="text3019-6"
       sodipodi:linespacing="125%"><tspan
         sodipodi:role="line"
         id="tspan3021-8"
         x="186.0056"
         y="429.40594"
         style="font-style:normal;font-variant:normal;font-weight:normal;font-stretch:normal;fill:#000000;font-family:NanumMyeongjo;-inkscape-font-specification:NanumMyeongjo"
         dx="0 0">sc</tspan></text>
    <text
       xml:space="preserve"
       style="font-size:110.49034882px;font-style:normal;font-variant:normal;font-weight:normal;font-stretch:normal;line-height:125%;letter-spacing:0px;word-spacing:0px;fill:#000000;fill-opacity:1;stroke:none;display:inline;font-family:NanumMyeongjo;-inkscape-font-specification:NanumMyeongjo"
       x="220.70306"
       y="442.9444"
       id="text3019-5-7"
       sodipodi:linespacing="125%"><tspan
         sodipodi:role="line"
         id="tspan3021-2-3"
         x="220.70306"
         y="442.9444"
         style="font-style:normal;font-variant:normal;font-weight:normal;font-stretch:normal;fill:#000000;font-family:NanumMyeongjo;-inkscape-font-specification:NanumMyeongjo"
         dx="-7.6729403">l</tspan></text>
  </g>
  <g
     inkscape:groupmode="layer"
     id="layer3"
     inkscape:label="Layer3"
     style="display:inline"
     transform="translate(-19.468748,-39.1875)">
    <text
       xml:space="preserve"
       style="font-size:12px;font-style:normal;font-weight:bold;line-height:125%;letter-spacing:0px;word-spacing:0px;fill:#ffffff;fill-opacity:1;stroke:none;font-family:Sans;-inkscape-font-specification:Sans Bold"
       id="text3150"
       sodipodi:linespacing="125%"
       y="86.009666"
       x="-38.890881"><tspan
         sodipodi:role="line"
         x="-38.890881"
         y="86.009666"
         id="tspan3156"
         style="font-weight:normal;fill:#ffffff;-inkscape-font-specification:Sans">Software</tspan><tspan
         sodipodi:role="line"
         x="-38.890881"
         y="101.00967"
         style="font-weight:normal;fill:#ffffff;-inkscape-font-specification:Sans"
         id="tspan3236">Licensing</tspan><tspan
         sodipodi:role="line"
         x="-38.890881"
         y="116.00967"
         style="font-weight:normal;fill:#ffffff;-inkscape-font-specification:Sans"
         id="tspan3238">Company</tspan></text>
  </g>
</svg>
