<?xml version="1.0" encoding="UTF-8" standalone="no"?>
<!-- Created with Inkscape (http://www.inkscape.org/) -->

<svg
   xmlns:dc="http://purl.org/dc/elements/1.1/"
   xmlns:cc="http://creativecommons.org/ns#"
   xmlns:rdf="http://www.w3.org/1999/02/22-rdf-syntax-ns#"
   xmlns:svg="http://www.w3.org/2000/svg"
   xmlns="http://www.w3.org/2000/svg"
   xmlns:sodipodi="http://sodipodi.sourceforge.net/DTD/sodipodi-0.dtd"
   xmlns:inkscape="http://www.inkscape.org/namespaces/inkscape"
   width="137.28439"
   height="77.375"
   id="svg2"
   version="1.1"
   inkscape:version="0.48.4 r9939"
   sodipodi:docname="logo4.svg">
  <defs
     id="defs4" />
  <sodipodi:namedview
     id="base"
     pagecolor="#000000"
     bordercolor="#666666"
     borderopacity="1.0"
     inkscape:pageopacity="1"
     inkscape:pageshadow="2"
     inkscape:zoom="1.979899"
     inkscape:cx="17.252837"
     inkscape:cy="-42.12982"
     inkscape:document-units="px"
     inkscape:current-layer="layer1"
     showgrid="false"
     showguides="true"
     inkscape:guide-bbox="true"
     fit-margin-top="0"
     fit-margin-left="0"
     fit-margin-right="0"
     fit-margin-bottom="0"
     inkscape:window-width="1231"
     inkscape:window-height="1000"
     inkscape:window-x="49"
     inkscape:window-y="24"
     inkscape:window-maximized="1" />
  <metadata
     id="metadata7">
    <rdf:RDF>
      <cc:Work
         rdf:about="">
        <dc:format>image/svg+xml</dc:format>
        <dc:type
           rdf:resource="http://purl.org/dc/dcmitype/StillImage" />
        <dc:title></dc:title>
      </cc:Work>
    </rdf:RDF>
  </metadata>
  <g
     inkscape:label="Layer 1"
     inkscape:groupmode="layer"
     id="layer1"
     style="display:inline"
     transform="translate(-197.75489,-365.31015)">
    <path
       style="fill:#0000ff;fill-opacity:1;stroke:none"
       d="m 63.75,43.6875 c -0.02377,0.469052 -0.04616,0.92304 -0.0625,1.40625 -0.07195,2.058323 -0.125018,3.915977 -0.125,5.5625 l 0,61.3125 c -1.8e-5,2.88155 0.524158,4.95256 1.53125,6.1875 1.007053,1.16634 3.084889,1.75 6.25,1.75 l 0,1.15625 c 8.140533,-1.58918 15.379214,-5.70285 20.875,-11.46875 -1.746102,0.44532 -3.511469,0.6875 -5.34375,0.6875 -2.877376,0 -5.650969,-0.69576 -8.3125,-2.0625 -2.589633,-1.36674 -4.892116,-3.19811 -6.90625,-5.5 -2.014156,-2.22994 -3.620883,-4.831952 -4.84375,-7.78125 -1.150946,-2.949269 -1.750005,-5.969325 -1.75,-9.0625 -5e-6,-4.172134 0.695752,-8.081344 2.0625,-11.75 1.366735,-3.668586 3.294806,-6.860223 5.8125,-9.59375 2.445735,-2.661504 5.347277,-4.792406 8.65625,-6.375 3.255039,-1.523595 6.77398,-2.318247 10.5625,-2.375 C 85.00656,48.331956 74.916939,43.6875 63.75,43.6875 z m -14.09375,2.59375 c -5.819386,2.235848 -10.962753,5.808523 -15.0625,10.34375 1.762708,-0.562782 3.690212,-0.843707 5.78125,-0.84375 1.726387,5.4e-5 3.632643,0.246517 5.71875,0.75 2.157984,0.431655 4.182754,1.202294 6.125,2.28125 l 0.875,11.84375 -2.25,0 C 50.340181,66.987667 49.173314,64.192258 47.375,62.25 c -1.798373,-2.014098 -4.5189,-3.0312 -8.1875,-3.03125 -2.805438,5e-5 -5.257685,0.748873 -7.34375,2.1875 -2.086093,1.366789 -3.125011,3.219979 -3.125,5.59375 -1.1e-5,1.726452 0.396217,3.23648 1.1875,4.53125 0.791259,1.222911 1.830177,2.336712 3.125,3.34375 1.294792,0.935173 2.751754,1.802511 4.40625,2.59375 1.654457,0.791303 3.367315,1.530692 5.09375,2.25 1.654452,0.791301 3.261178,1.636822 4.84375,2.5 1.582513,0.863232 2.995842,1.90215 4.21875,3.125 1.150906,1.150964 2.093126,2.511227 2.8125,4.09375 0.791235,1.510629 1.156212,3.26712 1.15625,5.28125 -3.8e-5,1.942226 -0.343199,3.848481 -1.0625,5.71875 -0.719374,1.87029 -1.833175,3.53008 -3.34375,4.96875 -1.510642,1.51061 -3.416898,2.6993 -5.71875,3.5625 -2.301908,0.86321 -5.000618,1.3125 -8.09375,1.3125 -0.468354,0 -0.955596,-0.032 -1.4375,-0.0625 4.299542,4.31793 9.60153,7.64027 15.53125,9.59375 1.99616,-0.19296 3.361138,-0.66565 4.0625,-1.4375 1.007062,-1.09773 1.499988,-3.25026 1.5,-6.40625 L 57,54.5625 c -1.2e-5,-1.783743 -0.12796,-3.189555 -0.34375,-4.21875 -0.143879,-1.097657 -0.48704,-1.976201 -1.0625,-2.59375 -0.503546,-0.54879 -1.274186,-0.862707 -2.28125,-1 -0.935147,-0.13714 -2.145646,-0.218673 -3.65625,-0.21875 l 0,-0.25 z m 38.625,12.9375 c -2.805444,5e-5 -5.310758,0.748873 -7.46875,2.1875 -2.086099,1.366789 -3.789524,3.12328 -5.15625,5.28125 -1.366756,2.086121 -2.405674,4.388605 -3.125,6.90625 -0.647416,2.517717 -0.968761,4.842016 -0.96875,7 -1.1e-5,3.021246 0.34315,5.944604 1.0625,8.75 0.791259,2.805436 2.001758,5.257684 3.65625,7.34375 1.65446,2.158025 3.763547,3.86145 6.28125,5.15625 2.517659,1.22288 5.484649,1.84376 8.9375,1.84375 2.079088,0 4.051477,-0.27291 5.875,-0.8125 C 100.94293,96.989521 103,90.090457 103,82.71875 103,74.709002 100.56343,67.254883 96.40625,61.0625 96.177027,60.919286 95.96916,60.760648 95.71875,60.625 93.992305,59.68991 91.518241,59.2188 88.28125,59.21875 z m -63.21875,17 c -0.356793,2.115598 -0.53125,4.283036 -0.53125,6.5 0,8.472956 2.707213,16.317672 7.3125,22.71875 0.105712,0.0647 0.203809,0.12539 0.3125,0.1875 1.582528,0.86321 3.616732,1.3125 6.0625,1.3125 4.100203,0 6.895612,-0.86734 8.40625,-2.59375 1.582514,-1.79834 2.374969,-3.77948 2.375,-5.9375 -3.1e-5,-1.654465 -0.374443,-3.067795 -1.09375,-4.21875 -0.647434,-1.222859 -1.514771,-2.283593 -2.59375,-3.21875 -1.079034,-0.93512 -2.311349,-1.780642 -3.75,-2.5 -1.438699,-0.79125 -2.926911,-1.583706 -4.4375,-2.375 -3.668641,-1.942188 -6.838461,-4.116723 -9.5,-6.5625 -1.064623,-1.007061 -1.923727,-2.121279 -2.5625,-3.3125 z"
       transform="translate(173.22364,321.62265)"
       id="path3799"
       inkscape:connector-curvature="0" />
    <text
       xml:space="preserve"
       style="font-size:12px;font-style:normal;font-weight:normal;line-height:125%;letter-spacing:0px;word-spacing:0px;fill:#ffffff;fill-opacity:1;stroke:none;font-family:Sans;-inkscape-font-specification:Sans"
       x="278.27951"
       y="391.72241"
       id="text3082"
       sodipodi:linespacing="125%"><tspan
         sodipodi:role="line"
         id="tspan3084"
         x="278.27951"
         y="391.72241">Software</tspan><tspan
         sodipodi:role="line"
         x="278.27951"
         y="406.72241"
         id="tspan3086">Licensing</tspan><tspan
         sodipodi:role="line"
         x="278.27951"
         y="421.72241"
         id="tspan3088">Company</tspan></text>
  </g>
  <g
     inkscape:groupmode="layer"
     id="layer2"
     inkscape:label="Layer2"
     style="display:inline"
     transform="translate(-197.75489,-365.31015)" />
</svg>
