<?xml version="1.0" encoding="UTF-8" standalone="no"?>
<!-- Created with Inkscape (http://www.inkscape.org/) -->

<svg
   xmlns:osb="http://www.openswatchbook.org/uri/2009/osb"
   xmlns:dc="http://purl.org/dc/elements/1.1/"
   xmlns:cc="http://creativecommons.org/ns#"
   xmlns:rdf="http://www.w3.org/1999/02/22-rdf-syntax-ns#"
   xmlns:svg="http://www.w3.org/2000/svg"
   xmlns="http://www.w3.org/2000/svg"
   xmlns:sodipodi="http://sodipodi.sourceforge.net/DTD/sodipodi-0.dtd"
   xmlns:inkscape="http://www.inkscape.org/namespaces/inkscape"
   width="461.10547"
   height="138.71094"
   id="svg2"
   version="1.1"
   inkscape:version="0.48.4 r9939"
   sodipodi:docname="logo2.svg">
  <defs
     id="defs4">
    <linearGradient
       id="linearGradient3775"
       osb:paint="solid">
      <stop
         style="stop-color:#000000;stop-opacity:1;"
         offset="0"
         id="stop3777" />
    </linearGradient>
  </defs>
  <sodipodi:namedview
     id="base"
     pagecolor="#ffffff"
     bordercolor="#666666"
     borderopacity="1.0"
     inkscape:pageopacity="0.0"
     inkscape:pageshadow="2"
     inkscape:zoom="0.35"
     inkscape:cx="196.90625"
     inkscape:cy="-197.39397"
     inkscape:document-units="px"
     inkscape:current-layer="layer1"
     showgrid="false"
     inkscape:window-width="925"
     inkscape:window-height="791"
     inkscape:window-x="49"
     inkscape:window-y="24"
     inkscape:window-maximized="0"
     fit-margin-top="0"
     fit-margin-left="0"
     fit-margin-right="0"
     fit-margin-bottom="0" />
  <metadata
     id="metadata7">
    <rdf:RDF>
      <cc:Work
         rdf:about="">
        <dc:format>image/svg+xml</dc:format>
        <dc:type
           rdf:resource="http://purl.org/dc/dcmitype/StillImage" />
        <dc:title></dc:title>
      </cc:Work>
    </rdf:RDF>
  </metadata>
  <g
     inkscape:label="Layer 1"
     inkscape:groupmode="layer"
     id="layer1"
     style="display:inline"
     transform="translate(-128.09375,-196.25728)">
    <text
       xml:space="preserve"
       style="font-size:144px;font-style:normal;font-variant:normal;font-weight:normal;font-stretch:normal;line-height:125%;letter-spacing:0px;word-spacing:0px;fill:#000000;fill-opacity:1;stroke:none;font-family:Serif;-inkscape-font-specification:Serif"
       x="157.14287"
       y="309.50504"
       id="text2997"
       sodipodi:linespacing="125%"><tspan
         sodipodi:role="line"
         id="tspan2999"
         x="157.14287"
         y="309.50504">slc</tspan></text>
    <rect
       style="fill:#ffffff;fill-opacity:1;stroke:none;display:inline"
       id="rect3005-9"
       width="263.27234"
       height="57.55806"
       x="128.36383"
       y="266.44028" />
    <text
       xml:space="preserve"
       style="font-size:40px;font-style:normal;font-weight:normal;line-height:125%;letter-spacing:0px;word-spacing:0px;fill:#000000;fill-opacity:1;stroke:none;font-family:Sans"
       x="400"
       y="226.6479"
       id="text6302"
       sodipodi:linespacing="125%"><tspan
         sodipodi:role="line"
         id="tspan6304"
         x="400"
         y="226.6479">Software</tspan><tspan
         sodipodi:role="line"
         x="400"
         y="276.64789"
         id="tspan6306">Licensing</tspan><tspan
         sodipodi:role="line"
         x="400"
         y="326.64789"
         id="tspan6308">Company</tspan></text>
  </g>
  <g
     inkscape:groupmode="layer"
     id="layer3"
     inkscape:label="Layer2"
     style="display:inline"
     transform="translate(-128.09375,-196.25728)" />
  <g
     inkscape:groupmode="layer"
     id="layer2"
     inkscape:label="Layer"
     style="display:inline"
     transform="translate(-128.09375,-196.25728)">
    <path
       style="fill:#0000ff;fill-opacity:1;stroke:#000000;stroke-width:0.58479524;stroke-linejoin:miter;stroke-miterlimit:4;stroke-opacity:1;stroke-dasharray:none"
       d="m 128.375,266.4375 0,57.5625 263.25,0 0,-57.5625 -91.90625,0 c -0.12167,1.80831 -0.1875,3.66384 -0.1875,5.65625 -2e-5,10.78128 1.7656,18.90627 5.28125,24.34375 3.56247,5.43751 8.84371,8.15625 15.875,8.15625 5.57808,0 10.04682,-1.46874 13.375,-4.375 3.32806,-2.90624 5.59369,-7.29686 6.8125,-13.15625 l 10.40625,0 c -1.8282,7.96876 -5.35944,14.04688 -10.5625,18.21875 -5.20318,4.17188 -11.9063,6.25 -20.15625,6.25 -10.87503,0 -19.64065,-3.57812 -26.25,-10.75 -6.60939,-7.21873 -9.90626,-16.78122 -9.90625,-28.6875 0,-1.95162 0.10506,-3.83334 0.28125,-5.65625 l -24.03125,0 0,35.625 12.21875,0 0,7.4375 -37.625,0 0,-7.4375 12.46875,0 0,-35.625 -48.25,0 4.21875,1.3125 c 7.07807,2.20316 12.15619,4.95316 15.25,8.28125 3.14056,3.28128 4.71868,7.51565 4.71875,12.71875 -7e-5,7.07814 -2.71881,12.67188 -8.15625,16.75 -5.39068,4.03125 -12.82817,6.03125 -22.34375,6.03125 -4.82816,0 -9.56253,-0.5 -14.15625,-1.53125 -4.59377,-1.03125 -9.18751,-2.59375 -13.78125,-4.65625 l 0,-17.4375 7.46875,0 c 0.18748,5.57814 1.90623,9.76564 5.1875,12.53125 3.3281,2.76563 8.24997,4.15625 14.71875,4.15625 5.81246,0 10.23433,-1.09374 13.28125,-3.25 3.04682,-2.20311 4.56245,-5.39061 4.5625,-9.5625 -5e-5,-3.28123 -1.12505,-5.92185 -3.375,-7.9375 -2.20317,-2.0156 -6.89067,-4.17185 -14.0625,-6.46875 l -9.34375,-3.15625 c -6.4219,-2.06246 -11.09377,-4.65621 -14,-7.75 -0.0101,-0.011 -0.0212,-0.0203 -0.0312,-0.0312 l -41.25,0 z"
       id="rect3005"
       inkscape:connector-curvature="0" />
  </g>
</svg>
